<svg width="200" height="200" fill="none" xmlns="http://www.w3.org/2000/svg"><g clip-path="url(#a)" fill="#D2D6DB"><circle cx=".5" cy=".5" r=".5"/><circle cx="6.5" cy=".5" r=".5"/><circle cx="12.5" cy=".5" r=".5"/><circle cx="18.5" cy=".5" r=".5"/><circle cx="24.5" cy=".5" r=".5"/><circle cx="30.5" cy=".5" r=".5"/><circle cx="36.5" cy=".5" r=".5"/><circle cx="42.5" cy=".5" r=".5"/><circle cx="48.5" cy=".5" r=".5"/><circle cx="54.5" cy=".5" r=".5"/><circle cx="60.5" cy=".5" r=".5"/><circle cx="66.5" cy=".5" r=".5"/><circle cx="72.5" cy=".5" r=".5"/><circle cx="78.5" cy=".5" r=".5"/><circle cx="84.5" cy=".5" r=".5"/><circle cx="90.5" cy=".5" r=".5"/><circle cx="96.5" cy=".5" r=".5"/><circle cx="102.5" cy=".5" r=".5"/><circle cx="108.5" cy=".5" r=".5"/><circle cx="114.5" cy=".5" r=".5"/><circle cx="120.5" cy=".5" r=".5"/><circle cx="126.5" cy=".5" r=".5"/><circle cx="132.5" cy=".5" r=".5"/><circle cx="138.5" cy=".5" r=".5"/><circle cx="144.5" cy=".5" r=".5"/><circle cx="150.5" cy=".5" r=".5"/><circle cx="156.5" cy=".5" r=".5"/><circle cx="162.5" cy=".5" r=".5"/><circle cx="168.5" cy=".5" r=".5"/><circle cx="174.5" cy=".5" r=".5"/><circle cx="180.5" cy=".5" r=".5"/><circle cx="186.5" cy=".5" r=".5"/><circle cx="192.5" cy=".5" r=".5"/><circle cx="198.5" cy=".5" r=".5"/><circle cx=".5" cy="6.5" r=".5"/><circle cx="6.5" cy="6.5" r=".5"/><circle cx="12.5" cy="6.5" r=".5"/><circle cx="18.5" cy="6.5" r=".5"/><circle cx="24.5" cy="6.5" r=".5"/><circle cx="30.5" cy="6.5" r=".5"/><circle cx="36.5" cy="6.5" r=".5"/><circle cx="42.5" cy="6.5" r=".5"/><circle cx="48.5" cy="6.5" r=".5"/><circle cx="54.5" cy="6.5" r=".5"/><circle cx="60.5" cy="6.5" r=".5"/><circle cx="66.5" cy="6.5" r=".5"/><circle cx="72.5" cy="6.5" r=".5"/><circle cx="78.5" cy="6.5" r=".5"/><circle cx="84.5" cy="6.5" r=".5"/><circle cx="90.5" cy="6.5" r=".5"/><circle cx="96.5" cy="6.5" r=".5"/><circle cx="102.5" cy="6.5" r=".5"/><circle cx="108.5" cy="6.5" r=".5"/><circle cx="114.5" cy="6.5" r=".5"/><circle cx="120.5" cy="6.5" r=".5"/><circle cx="126.5" cy="6.5" r=".5"/><circle cx="132.5" cy="6.5" r=".5"/><circle cx="138.5" cy="6.5" r=".5"/><circle cx="144.5" cy="6.5" r=".5"/><circle cx="150.5" cy="6.5" r=".5"/><circle cx="156.5" cy="6.5" r=".5"/><circle cx="162.5" cy="6.5" r=".5"/><circle cx="168.5" cy="6.5" r=".5"/><circle cx="174.5" cy="6.5" r=".5"/><circle cx="180.5" cy="6.5" r=".5"/><circle cx="186.5" cy="6.5" r=".5"/><circle cx="192.5" cy="6.5" r=".5"/><circle cx="198.5" cy="6.5" r=".5"/><circle cx=".5" cy="12.5" r=".5"/><circle cx="6.5" cy="12.5" r=".5"/><circle cx="12.5" cy="12.5" r=".5"/><circle cx="18.5" cy="12.5" r=".5"/><circle cx="24.5" cy="12.5" r=".5"/><circle cx="30.5" cy="12.5" r=".5"/><circle cx="36.5" cy="12.5" r=".5"/><circle cx="42.5" cy="12.5" r=".5"/><circle cx="48.5" cy="12.5" r=".5"/><circle cx="54.5" cy="12.5" r=".5"/><circle cx="60.5" cy="12.5" r=".5"/><circle cx="66.5" cy="12.5" r=".5"/><circle cx="72.5" cy="12.5" r=".5"/><circle cx="78.5" cy="12.5" r=".5"/><circle cx="84.5" cy="12.5" r=".5"/><circle cx="90.5" cy="12.5" r=".5"/><circle cx="96.5" cy="12.5" r=".5"/><circle cx="102.5" cy="12.5" r=".5"/><circle cx="108.5" cy="12.5" r=".5"/><circle cx="114.5" cy="12.5" r=".5"/><circle cx="120.5" cy="12.5" r=".5"/><circle cx="126.5" cy="12.5" r=".5"/><circle cx="132.5" cy="12.5" r=".5"/><circle cx="138.5" cy="12.5" r=".5"/><circle cx="144.5" cy="12.5" r=".5"/><circle cx="150.5" cy="12.5" r=".5"/><circle cx="156.5" cy="12.5" r=".5"/><circle cx="162.5" cy="12.5" r=".5"/><circle cx="168.5" cy="12.5" r=".5"/><circle cx="174.5" cy="12.5" r=".5"/><circle cx="180.5" cy="12.5" r=".5"/><circle cx="186.5" cy="12.5" r=".5"/><circle cx="192.5" cy="12.5" r=".5"/><circle cx="198.5" cy="12.5" r=".5"/><circle cx=".5" cy="18.5" r=".5"/><circle cx="6.5" cy="18.5" r=".5"/><circle cx="12.5" cy="18.5" r=".5"/><circle cx="18.5" cy="18.5" r=".5"/><circle cx="24.5" cy="18.5" r=".5"/><circle cx="30.5" cy="18.5" r=".5"/><circle cx="36.5" cy="18.5" r=".5"/><circle cx="42.5" cy="18.5" r=".5"/><circle cx="48.5" cy="18.5" r=".5"/><circle cx="54.5" cy="18.5" r=".5"/><circle cx="60.5" cy="18.5" r=".5"/><circle cx="66.5" cy="18.5" r=".5"/><circle cx="72.5" cy="18.5" r=".5"/><circle cx="78.5" cy="18.5" r=".5"/><circle cx="84.5" cy="18.5" r=".5"/><circle cx="90.5" cy="18.5" r=".5"/><circle cx="96.5" cy="18.5" r=".5"/><circle cx="102.5" cy="18.5" r=".5"/><circle cx="108.5" cy="18.5" r=".5"/><circle cx="114.5" cy="18.5" r=".5"/><circle cx="120.5" cy="18.5" r=".5"/><circle cx="126.5" cy="18.5" r=".5"/><circle cx="132.5" cy="18.5" r=".5"/><circle cx="138.5" cy="18.5" r=".5"/><circle cx="144.5" cy="18.5" r=".5"/><circle cx="150.5" cy="18.5" r=".5"/><circle cx="156.5" cy="18.5" r=".5"/><circle cx="162.5" cy="18.5" r=".5"/><circle cx="168.5" cy="18.5" r=".5"/><circle cx="174.5" cy="18.5" r=".5"/><circle cx="180.5" cy="18.5" r=".5"/><circle cx="186.5" cy="18.5" r=".5"/><circle cx="192.5" cy="18.5" r=".5"/><circle cx="198.5" cy="18.5" r=".5"/><circle cx=".5" cy="24.5" r=".5"/><circle cx="6.5" cy="24.5" r=".5"/><circle cx="12.5" cy="24.5" r=".5"/><circle cx="18.5" cy="24.5" r=".5"/><circle cx="24.5" cy="24.5" r=".5"/><circle cx="30.5" cy="24.5" r=".5"/><circle cx="36.5" cy="24.5" r=".5"/><circle cx="42.5" cy="24.5" r=".5"/><circle cx="48.5" cy="24.5" r=".5"/><circle cx="54.5" cy="24.5" r=".5"/><circle cx="60.5" cy="24.5" r=".5"/><circle cx="66.5" cy="24.5" r=".5"/><circle cx="72.5" cy="24.5" r=".5"/><circle cx="78.5" cy="24.5" r=".5"/><circle cx="84.5" cy="24.5" r=".5"/><circle cx="90.5" cy="24.5" r=".5"/><circle cx="96.5" cy="24.5" r=".5"/><circle cx="102.5" cy="24.5" r=".5"/><circle cx="108.5" cy="24.5" r=".5"/><circle cx="114.5" cy="24.5" r=".5"/><circle cx="120.5" cy="24.5" r=".5"/><circle cx="126.5" cy="24.5" r=".5"/><circle cx="132.5" cy="24.5" r=".5"/><circle cx="138.5" cy="24.5" r=".5"/><circle cx="144.5" cy="24.5" r=".5"/><circle cx="150.5" cy="24.5" r=".5"/><circle cx="156.5" cy="24.5" r=".5"/><circle cx="162.5" cy="24.5" r=".5"/><circle cx="168.5" cy="24.5" r=".5"/><circle cx="174.5" cy="24.5" r=".5"/><circle cx="180.5" cy="24.5" r=".5"/><circle cx="186.5" cy="24.5" r=".5"/><circle cx="192.5" cy="24.5" r=".5"/><circle cx="198.5" cy="24.5" r=".5"/><circle cx=".5" cy="30.5" r=".5"/><circle cx="6.5" cy="30.5" r=".5"/><circle cx="12.5" cy="30.5" r=".5"/><circle cx="18.5" cy="30.5" r=".5"/><circle cx="24.5" cy="30.5" r=".5"/><circle cx="30.5" cy="30.5" r=".5"/><circle cx="36.5" cy="30.5" r=".5"/><circle cx="42.5" cy="30.5" r=".5"/><circle cx="48.5" cy="30.5" r=".5"/><circle cx="54.5" cy="30.5" r=".5"/><circle cx="60.5" cy="30.5" r=".5"/><circle cx="66.5" cy="30.5" r=".5"/><circle cx="72.5" cy="30.5" r=".5"/><circle cx="78.5" cy="30.5" r=".5"/><circle cx="84.5" cy="30.5" r=".5"/><circle cx="90.5" cy="30.5" r=".5"/><circle cx="96.5" cy="30.5" r=".5"/><circle cx="102.5" cy="30.5" r=".5"/><circle cx="108.5" cy="30.5" r=".5"/><circle cx="114.5" cy="30.5" r=".5"/><circle cx="120.5" cy="30.5" r=".5"/><circle cx="126.5" cy="30.5" r=".5"/><circle cx="132.5" cy="30.5" r=".5"/><circle cx="138.5" cy="30.5" r=".5"/><circle cx="144.5" cy="30.5" r=".5"/><circle cx="150.5" cy="30.5" r=".5"/><circle cx="156.5" cy="30.5" r=".5"/><circle cx="162.5" cy="30.5" r=".5"/><circle cx="168.5" cy="30.5" r=".5"/><circle cx="174.5" cy="30.5" r=".5"/><circle cx="180.5" cy="30.5" r=".5"/><circle cx="186.5" cy="30.5" r=".5"/><circle cx="192.5" cy="30.5" r=".5"/><circle cx="198.5" cy="30.5" r=".5"/><circle cx=".5" cy="36.5" r=".5"/><circle cx="6.5" cy="36.5" r=".5"/><circle cx="12.5" cy="36.5" r=".5"/><circle cx="18.5" cy="36.5" r=".5"/><circle cx="24.5" cy="36.5" r=".5"/><circle cx="30.5" cy="36.5" r=".5"/><circle cx="36.5" cy="36.5" r=".5"/><circle cx="42.5" cy="36.5" r=".5"/><circle cx="48.5" cy="36.5" r=".5"/><circle cx="54.5" cy="36.5" r=".5"/><circle cx="60.5" cy="36.5" r=".5"/><circle cx="66.5" cy="36.5" r=".5"/><circle cx="72.5" cy="36.5" r=".5"/><circle cx="78.5" cy="36.5" r=".5"/><circle cx="84.5" cy="36.5" r=".5"/><circle cx="90.5" cy="36.5" r=".5"/><circle cx="96.5" cy="36.5" r=".5"/><circle cx="102.5" cy="36.5" r=".5"/><circle cx="108.5" cy="36.5" r=".5"/><circle cx="114.5" cy="36.5" r=".5"/><circle cx="120.5" cy="36.5" r=".5"/><circle cx="126.5" cy="36.5" r=".5"/><circle cx="132.5" cy="36.5" r=".5"/><circle cx="138.5" cy="36.5" r=".5"/><circle cx="144.5" cy="36.5" r=".5"/><circle cx="150.5" cy="36.5" r=".5"/><circle cx="156.5" cy="36.5" r=".5"/><circle cx="162.5" cy="36.5" r=".5"/><circle cx="168.5" cy="36.5" r=".5"/><circle cx="174.5" cy="36.5" r=".5"/><circle cx="180.5" cy="36.5" r=".5"/><circle cx="186.5" cy="36.5" r=".5"/><circle cx="192.5" cy="36.5" r=".5"/><circle cx="198.5" cy="36.5" r=".5"/><circle cx=".5" cy="42.5" r=".5"/><circle cx="6.5" cy="42.5" r=".5"/><circle cx="12.5" cy="42.5" r=".5"/><circle cx="18.5" cy="42.5" r=".5"/><circle cx="24.5" cy="42.5" r=".5"/><circle cx="30.5" cy="42.5" r=".5"/><circle cx="36.5" cy="42.5" r=".5"/><circle cx="42.5" cy="42.5" r=".5"/><circle cx="48.5" cy="42.5" r=".5"/><circle cx="54.5" cy="42.5" r=".5"/><circle cx="60.5" cy="42.5" r=".5"/><circle cx="66.5" cy="42.5" r=".5"/><circle cx="72.5" cy="42.5" r=".5"/><circle cx="78.5" cy="42.5" r=".5"/><circle cx="84.5" cy="42.5" r=".5"/><circle cx="90.5" cy="42.5" r=".5"/><circle cx="96.5" cy="42.5" r=".5"/><circle cx="102.5" cy="42.5" r=".5"/><circle cx="108.5" cy="42.5" r=".5"/><circle cx="114.5" cy="42.5" r=".5"/><circle cx="120.5" cy="42.5" r=".5"/><circle cx="126.5" cy="42.5" r=".5"/><circle cx="132.5" cy="42.5" r=".5"/><circle cx="138.5" cy="42.5" r=".5"/><circle cx="144.5" cy="42.5" r=".5"/><circle cx="150.5" cy="42.5" r=".5"/><circle cx="156.5" cy="42.5" r=".5"/><circle cx="162.5" cy="42.5" r=".5"/><circle cx="168.5" cy="42.5" r=".5"/><circle cx="174.5" cy="42.5" r=".5"/><circle cx="180.5" cy="42.5" r=".5"/><circle cx="186.5" cy="42.5" r=".5"/><circle cx="192.5" cy="42.5" r=".5"/><circle cx="198.5" cy="42.5" r=".5"/><circle cx=".5" cy="48.5" r=".5"/><circle cx="6.5" cy="48.5" r=".5"/><circle cx="12.5" cy="48.5" r=".5"/><circle cx="18.5" cy="48.5" r=".5"/><circle cx="24.5" cy="48.5" r=".5"/><circle cx="30.5" cy="48.5" r=".5"/><circle cx="36.5" cy="48.5" r=".5"/><circle cx="42.5" cy="48.5" r=".5"/><circle cx="48.5" cy="48.5" r=".5"/><circle cx="54.5" cy="48.5" r=".5"/><circle cx="60.5" cy="48.5" r=".5"/><circle cx="66.5" cy="48.5" r=".5"/><circle cx="72.5" cy="48.5" r=".5"/><circle cx="78.5" cy="48.5" r=".5"/><circle cx="84.5" cy="48.5" r=".5"/><circle cx="90.5" cy="48.5" r=".5"/><circle cx="96.5" cy="48.5" r=".5"/><circle cx="102.5" cy="48.5" r=".5"/><circle cx="108.5" cy="48.5" r=".5"/><circle cx="114.5" cy="48.5" r=".5"/><circle cx="120.5" cy="48.5" r=".5"/><circle cx="126.5" cy="48.5" r=".5"/><circle cx="132.5" cy="48.5" r=".5"/><circle cx="138.5" cy="48.5" r=".5"/><circle cx="144.5" cy="48.5" r=".5"/><circle cx="150.5" cy="48.5" r=".5"/><circle cx="156.5" cy="48.5" r=".5"/><circle cx="162.5" cy="48.5" r=".5"/><circle cx="168.5" cy="48.5" r=".5"/><circle cx="174.5" cy="48.5" r=".5"/><circle cx="180.5" cy="48.5" r=".5"/><circle cx="186.5" cy="48.5" r=".5"/><circle cx="192.5" cy="48.5" r=".5"/><circle cx="198.5" cy="48.5" r=".5"/><circle cx=".5" cy="54.5" r=".5"/><circle cx="6.5" cy="54.5" r=".5"/><circle cx="12.5" cy="54.5" r=".5"/><circle cx="18.5" cy="54.5" r=".5"/><circle cx="24.5" cy="54.5" r=".5"/><circle cx="30.5" cy="54.5" r=".5"/><circle cx="36.5" cy="54.5" r=".5"/><circle cx="42.5" cy="54.5" r=".5"/><circle cx="48.5" cy="54.5" r=".5"/><circle cx="54.5" cy="54.5" r=".5"/><circle cx="60.5" cy="54.5" r=".5"/><circle cx="66.5" cy="54.5" r=".5"/><circle cx="72.5" cy="54.5" r=".5"/><circle cx="78.5" cy="54.5" r=".5"/><circle cx="84.5" cy="54.5" r=".5"/><circle cx="90.5" cy="54.5" r=".5"/><circle cx="96.5" cy="54.5" r=".5"/><circle cx="102.5" cy="54.5" r=".5"/><circle cx="108.5" cy="54.5" r=".5"/><circle cx="114.5" cy="54.5" r=".5"/><circle cx="120.5" cy="54.5" r=".5"/><circle cx="126.5" cy="54.5" r=".5"/><circle cx="132.5" cy="54.5" r=".5"/><circle cx="138.5" cy="54.5" r=".5"/><circle cx="144.5" cy="54.5" r=".5"/><circle cx="150.5" cy="54.5" r=".5"/><circle cx="156.5" cy="54.5" r=".5"/><circle cx="162.5" cy="54.5" r=".5"/><circle cx="168.5" cy="54.5" r=".5"/><circle cx="174.5" cy="54.5" r=".5"/><circle cx="180.5" cy="54.5" r=".5"/><circle cx="186.5" cy="54.5" r=".5"/><circle cx="192.5" cy="54.5" r=".5"/><circle cx="198.5" cy="54.5" r=".5"/><circle cx=".5" cy="60.5" r=".5"/><circle cx="6.5" cy="60.5" r=".5"/><circle cx="12.5" cy="60.5" r=".5"/><circle cx="18.5" cy="60.5" r=".5"/><circle cx="24.5" cy="60.5" r=".5"/><circle cx="30.5" cy="60.5" r=".5"/><circle cx="36.5" cy="60.5" r=".5"/><circle cx="42.5" cy="60.5" r=".5"/><circle cx="48.5" cy="60.5" r=".5"/><circle cx="54.5" cy="60.5" r=".5"/><circle cx="60.5" cy="60.5" r=".5"/><circle cx="66.5" cy="60.5" r=".5"/><circle cx="72.5" cy="60.5" r=".5"/><circle cx="78.5" cy="60.5" r=".5"/><circle cx="84.5" cy="60.5" r=".5"/><circle cx="90.5" cy="60.5" r=".5"/><circle cx="96.5" cy="60.5" r=".5"/><circle cx="102.5" cy="60.5" r=".5"/><circle cx="108.5" cy="60.5" r=".5"/><circle cx="114.5" cy="60.5" r=".5"/><circle cx="120.5" cy="60.5" r=".5"/><circle cx="126.5" cy="60.5" r=".5"/><circle cx="132.5" cy="60.5" r=".5"/><circle cx="138.5" cy="60.5" r=".5"/><circle cx="144.5" cy="60.5" r=".5"/><circle cx="150.5" cy="60.5" r=".5"/><circle cx="156.5" cy="60.5" r=".5"/><circle cx="162.5" cy="60.5" r=".5"/><circle cx="168.5" cy="60.5" r=".5"/><circle cx="174.5" cy="60.5" r=".5"/><circle cx="180.5" cy="60.5" r=".5"/><circle cx="186.5" cy="60.5" r=".5"/><circle cx="192.5" cy="60.5" r=".5"/><circle cx="198.5" cy="60.5" r=".5"/><circle cx=".5" cy="66.5" r=".5"/><circle cx="6.5" cy="66.5" r=".5"/><circle cx="12.5" cy="66.5" r=".5"/><circle cx="18.5" cy="66.5" r=".5"/><circle cx="24.5" cy="66.5" r=".5"/><circle cx="30.5" cy="66.5" r=".5"/><circle cx="36.5" cy="66.5" r=".5"/><circle cx="42.5" cy="66.5" r=".5"/><circle cx="48.5" cy="66.5" r=".5"/><circle cx="54.5" cy="66.5" r=".5"/><circle cx="60.5" cy="66.5" r=".5"/><circle cx="66.5" cy="66.5" r=".5"/><circle cx="72.5" cy="66.5" r=".5"/><circle cx="78.5" cy="66.5" r=".5"/><circle cx="84.5" cy="66.5" r=".5"/><circle cx="90.5" cy="66.5" r=".5"/><circle cx="96.5" cy="66.5" r=".5"/><circle cx="102.5" cy="66.5" r=".5"/><circle cx="108.5" cy="66.5" r=".5"/><circle cx="114.5" cy="66.5" r=".5"/><circle cx="120.5" cy="66.5" r=".5"/><circle cx="126.5" cy="66.5" r=".5"/><circle cx="132.5" cy="66.5" r=".5"/><circle cx="138.5" cy="66.5" r=".5"/><circle cx="144.5" cy="66.5" r=".5"/><circle cx="150.5" cy="66.5" r=".5"/><circle cx="156.5" cy="66.5" r=".5"/><circle cx="162.5" cy="66.5" r=".5"/><circle cx="168.5" cy="66.5" r=".5"/><circle cx="174.5" cy="66.5" r=".5"/><circle cx="180.5" cy="66.5" r=".5"/><circle cx="186.5" cy="66.5" r=".5"/><circle cx="192.5" cy="66.5" r=".5"/><circle cx="198.5" cy="66.5" r=".5"/><circle cx=".5" cy="72.5" r=".5"/><circle cx="6.5" cy="72.5" r=".5"/><circle cx="12.5" cy="72.5" r=".5"/><circle cx="18.5" cy="72.5" r=".5"/><circle cx="24.5" cy="72.5" r=".5"/><circle cx="30.5" cy="72.5" r=".5"/><circle cx="36.5" cy="72.5" r=".5"/><circle cx="42.5" cy="72.5" r=".5"/><circle cx="48.5" cy="72.5" r=".5"/><circle cx="54.5" cy="72.5" r=".5"/><circle cx="60.5" cy="72.5" r=".5"/><circle cx="66.5" cy="72.5" r=".5"/><circle cx="72.5" cy="72.5" r=".5"/><circle cx="78.5" cy="72.5" r=".5"/><circle cx="84.5" cy="72.5" r=".5"/><circle cx="90.5" cy="72.5" r=".5"/><circle cx="96.5" cy="72.5" r=".5"/><circle cx="102.5" cy="72.5" r=".5"/><circle cx="108.5" cy="72.5" r=".5"/><circle cx="114.5" cy="72.5" r=".5"/><circle cx="120.5" cy="72.5" r=".5"/><circle cx="126.5" cy="72.5" r=".5"/><circle cx="132.5" cy="72.5" r=".5"/><circle cx="138.5" cy="72.5" r=".5"/><circle cx="144.5" cy="72.5" r=".5"/><circle cx="150.5" cy="72.5" r=".5"/><circle cx="156.5" cy="72.5" r=".5"/><circle cx="162.5" cy="72.5" r=".5"/><circle cx="168.5" cy="72.5" r=".5"/><circle cx="174.5" cy="72.5" r=".5"/><circle cx="180.5" cy="72.5" r=".5"/><circle cx="186.5" cy="72.5" r=".5"/><circle cx="192.5" cy="72.5" r=".5"/><circle cx="198.5" cy="72.5" r=".5"/><circle cx=".5" cy="78.5" r=".5"/><circle cx="6.5" cy="78.5" r=".5"/><circle cx="12.5" cy="78.5" r=".5"/><circle cx="18.5" cy="78.5" r=".5"/><circle cx="24.5" cy="78.5" r=".5"/><circle cx="30.5" cy="78.5" r=".5"/><circle cx="36.5" cy="78.5" r=".5"/><circle cx="42.5" cy="78.5" r=".5"/><circle cx="48.5" cy="78.5" r=".5"/><circle cx="54.5" cy="78.5" r=".5"/><circle cx="60.5" cy="78.5" r=".5"/><circle cx="66.5" cy="78.5" r=".5"/><circle cx="72.5" cy="78.5" r=".5"/><circle cx="78.5" cy="78.5" r=".5"/><circle cx="84.5" cy="78.5" r=".5"/><circle cx="90.5" cy="78.5" r=".5"/><circle cx="96.5" cy="78.5" r=".5"/><circle cx="102.5" cy="78.5" r=".5"/><circle cx="108.5" cy="78.5" r=".5"/><circle cx="114.5" cy="78.5" r=".5"/><circle cx="120.5" cy="78.5" r=".5"/><circle cx="126.5" cy="78.5" r=".5"/><circle cx="132.5" cy="78.5" r=".5"/><circle cx="138.5" cy="78.5" r=".5"/><circle cx="144.5" cy="78.5" r=".5"/><circle cx="150.5" cy="78.5" r=".5"/><circle cx="156.5" cy="78.5" r=".5"/><circle cx="162.5" cy="78.5" r=".5"/><circle cx="168.5" cy="78.5" r=".5"/><circle cx="174.5" cy="78.5" r=".5"/><circle cx="180.5" cy="78.5" r=".5"/><circle cx="186.5" cy="78.5" r=".5"/><circle cx="192.5" cy="78.5" r=".5"/><circle cx="198.5" cy="78.5" r=".5"/><circle cx=".5" cy="84.5" r=".5"/><circle cx="6.5" cy="84.5" r=".5"/><circle cx="12.5" cy="84.5" r=".5"/><circle cx="18.5" cy="84.5" r=".5"/><circle cx="24.5" cy="84.5" r=".5"/><circle cx="30.5" cy="84.5" r=".5"/><circle cx="36.5" cy="84.5" r=".5"/><circle cx="42.5" cy="84.5" r=".5"/><circle cx="48.5" cy="84.5" r=".5"/><circle cx="54.5" cy="84.5" r=".5"/><circle cx="60.5" cy="84.5" r=".5"/><circle cx="66.5" cy="84.5" r=".5"/><circle cx="72.5" cy="84.5" r=".5"/><circle cx="78.5" cy="84.5" r=".5"/><circle cx="84.5" cy="84.5" r=".5"/><circle cx="90.5" cy="84.5" r=".5"/><circle cx="96.5" cy="84.5" r=".5"/><circle cx="102.5" cy="84.5" r=".5"/><circle cx="108.5" cy="84.5" r=".5"/><circle cx="114.5" cy="84.5" r=".5"/><circle cx="120.5" cy="84.5" r=".5"/><circle cx="126.5" cy="84.5" r=".5"/><circle cx="132.5" cy="84.5" r=".5"/><circle cx="138.5" cy="84.5" r=".5"/><circle cx="144.5" cy="84.5" r=".5"/><circle cx="150.5" cy="84.5" r=".5"/><circle cx="156.5" cy="84.5" r=".5"/><circle cx="162.5" cy="84.5" r=".5"/><circle cx="168.5" cy="84.5" r=".5"/><circle cx="174.5" cy="84.5" r=".5"/><circle cx="180.5" cy="84.5" r=".5"/><circle cx="186.5" cy="84.5" r=".5"/><circle cx="192.5" cy="84.5" r=".5"/><circle cx="198.5" cy="84.5" r=".5"/><circle cx=".5" cy="90.5" r=".5"/><circle cx="6.5" cy="90.5" r=".5"/><circle cx="12.5" cy="90.5" r=".5"/><circle cx="18.5" cy="90.5" r=".5"/><circle cx="24.5" cy="90.5" r=".5"/><circle cx="30.5" cy="90.5" r=".5"/><circle cx="36.5" cy="90.5" r=".5"/><circle cx="42.5" cy="90.5" r=".5"/><circle cx="48.5" cy="90.5" r=".5"/><circle cx="54.5" cy="90.5" r=".5"/><circle cx="60.5" cy="90.5" r=".5"/><circle cx="66.5" cy="90.5" r=".5"/><circle cx="72.5" cy="90.5" r=".5"/><circle cx="78.5" cy="90.5" r=".5"/><circle cx="84.5" cy="90.5" r=".5"/><circle cx="90.5" cy="90.5" r=".5"/><circle cx="96.5" cy="90.5" r=".5"/><circle cx="102.5" cy="90.5" r=".5"/><circle cx="108.5" cy="90.5" r=".5"/><circle cx="114.5" cy="90.5" r=".5"/><circle cx="120.5" cy="90.5" r=".5"/><circle cx="126.5" cy="90.5" r=".5"/><circle cx="132.5" cy="90.5" r=".5"/><circle cx="138.5" cy="90.5" r=".5"/><circle cx="144.5" cy="90.5" r=".5"/><circle cx="150.5" cy="90.5" r=".5"/><circle cx="156.5" cy="90.5" r=".5"/><circle cx="162.5" cy="90.5" r=".5"/><circle cx="168.5" cy="90.5" r=".5"/><circle cx="174.5" cy="90.5" r=".5"/><circle cx="180.5" cy="90.5" r=".5"/><circle cx="186.5" cy="90.5" r=".5"/><circle cx="192.5" cy="90.5" r=".5"/><circle cx="198.5" cy="90.5" r=".5"/><circle cx=".5" cy="96.5" r=".5"/><circle cx="6.5" cy="96.5" r=".5"/><circle cx="12.5" cy="96.5" r=".5"/><circle cx="18.5" cy="96.5" r=".5"/><circle cx="24.5" cy="96.5" r=".5"/><circle cx="30.5" cy="96.5" r=".5"/><circle cx="36.5" cy="96.5" r=".5"/><circle cx="42.5" cy="96.5" r=".5"/><circle cx="48.5" cy="96.5" r=".5"/><circle cx="54.5" cy="96.5" r=".5"/><circle cx="60.5" cy="96.5" r=".5"/><circle cx="66.5" cy="96.5" r=".5"/><circle cx="72.5" cy="96.5" r=".5"/><circle cx="78.5" cy="96.5" r=".5"/><circle cx="84.5" cy="96.5" r=".5"/><circle cx="90.5" cy="96.5" r=".5"/><circle cx="96.5" cy="96.5" r=".5"/><circle cx="102.5" cy="96.5" r=".5"/><circle cx="108.5" cy="96.5" r=".5"/><circle cx="114.5" cy="96.5" r=".5"/><circle cx="120.5" cy="96.5" r=".5"/><circle cx="126.5" cy="96.5" r=".5"/><circle cx="132.5" cy="96.5" r=".5"/><circle cx="138.5" cy="96.5" r=".5"/><circle cx="144.5" cy="96.5" r=".5"/><circle cx="150.5" cy="96.5" r=".5"/><circle cx="156.5" cy="96.5" r=".5"/><circle cx="162.5" cy="96.5" r=".5"/><circle cx="168.5" cy="96.5" r=".5"/><circle cx="174.5" cy="96.5" r=".5"/><circle cx="180.5" cy="96.5" r=".5"/><circle cx="186.5" cy="96.5" r=".5"/><circle cx="192.5" cy="96.5" r=".5"/><circle cx="198.5" cy="96.5" r=".5"/><circle cx=".5" cy="102.5" r=".5"/><circle cx="6.5" cy="102.5" r=".5"/><circle cx="12.5" cy="102.5" r=".5"/><circle cx="18.5" cy="102.5" r=".5"/><circle cx="24.5" cy="102.5" r=".5"/><circle cx="30.5" cy="102.5" r=".5"/><circle cx="36.5" cy="102.5" r=".5"/><circle cx="42.5" cy="102.5" r=".5"/><circle cx="48.5" cy="102.5" r=".5"/><circle cx="54.5" cy="102.5" r=".5"/><circle cx="60.5" cy="102.5" r=".5"/><circle cx="66.5" cy="102.5" r=".5"/><circle cx="72.5" cy="102.5" r=".5"/><circle cx="78.5" cy="102.5" r=".5"/><circle cx="84.5" cy="102.5" r=".5"/><circle cx="90.5" cy="102.5" r=".5"/><circle cx="96.5" cy="102.5" r=".5"/><circle cx="102.5" cy="102.5" r=".5"/><circle cx="108.5" cy="102.5" r=".5"/><circle cx="114.5" cy="102.5" r=".5"/><circle cx="120.5" cy="102.5" r=".5"/><circle cx="126.5" cy="102.5" r=".5"/><circle cx="132.5" cy="102.5" r=".5"/><circle cx="138.5" cy="102.5" r=".5"/><circle cx="144.5" cy="102.5" r=".5"/><circle cx="150.5" cy="102.5" r=".5"/><circle cx="156.5" cy="102.5" r=".5"/><circle cx="162.5" cy="102.5" r=".5"/><circle cx="168.5" cy="102.5" r=".5"/><circle cx="174.5" cy="102.5" r=".5"/><circle cx="180.5" cy="102.5" r=".5"/><circle cx="186.5" cy="102.5" r=".5"/><circle cx="192.5" cy="102.5" r=".5"/><circle cx="198.5" cy="102.5" r=".5"/><circle cx=".5" cy="108.5" r=".5"/><circle cx="6.5" cy="108.5" r=".5"/><circle cx="12.5" cy="108.5" r=".5"/><circle cx="18.5" cy="108.5" r=".5"/><circle cx="24.5" cy="108.5" r=".5"/><circle cx="30.5" cy="108.5" r=".5"/><circle cx="36.5" cy="108.5" r=".5"/><circle cx="42.5" cy="108.5" r=".5"/><circle cx="48.5" cy="108.5" r=".5"/><circle cx="54.5" cy="108.5" r=".5"/><circle cx="60.5" cy="108.5" r=".5"/><circle cx="66.5" cy="108.5" r=".5"/><circle cx="72.5" cy="108.5" r=".5"/><circle cx="78.5" cy="108.5" r=".5"/><circle cx="84.5" cy="108.5" r=".5"/><circle cx="90.5" cy="108.5" r=".5"/><circle cx="96.5" cy="108.5" r=".5"/><circle cx="102.5" cy="108.5" r=".5"/><circle cx="108.5" cy="108.5" r=".5"/><circle cx="114.5" cy="108.5" r=".5"/><circle cx="120.5" cy="108.5" r=".5"/><circle cx="126.5" cy="108.5" r=".5"/><circle cx="132.5" cy="108.5" r=".5"/><circle cx="138.5" cy="108.5" r=".5"/><circle cx="144.5" cy="108.5" r=".5"/><circle cx="150.5" cy="108.5" r=".5"/><circle cx="156.5" cy="108.5" r=".5"/><circle cx="162.5" cy="108.5" r=".5"/><circle cx="168.5" cy="108.5" r=".5"/><circle cx="174.5" cy="108.5" r=".5"/><circle cx="180.5" cy="108.5" r=".5"/><circle cx="186.5" cy="108.5" r=".5"/><circle cx="192.5" cy="108.5" r=".5"/><circle cx="198.5" cy="108.5" r=".5"/><circle cx=".5" cy="114.5" r=".5"/><circle cx="6.5" cy="114.5" r=".5"/><circle cx="12.5" cy="114.5" r=".5"/><circle cx="18.5" cy="114.5" r=".5"/><circle cx="24.5" cy="114.5" r=".5"/><circle cx="30.5" cy="114.5" r=".5"/><circle cx="36.5" cy="114.5" r=".5"/><circle cx="42.5" cy="114.5" r=".5"/><circle cx="48.5" cy="114.5" r=".5"/><circle cx="54.5" cy="114.5" r=".5"/><circle cx="60.5" cy="114.5" r=".5"/><circle cx="66.5" cy="114.5" r=".5"/><circle cx="72.5" cy="114.5" r=".5"/><circle cx="78.5" cy="114.5" r=".5"/><circle cx="84.5" cy="114.5" r=".5"/><circle cx="90.5" cy="114.5" r=".5"/><circle cx="96.5" cy="114.5" r=".5"/><circle cx="102.5" cy="114.5" r=".5"/><circle cx="108.5" cy="114.5" r=".5"/><circle cx="114.5" cy="114.5" r=".5"/><circle cx="120.5" cy="114.5" r=".5"/><circle cx="126.5" cy="114.5" r=".5"/><circle cx="132.5" cy="114.5" r=".5"/><circle cx="138.5" cy="114.5" r=".5"/><circle cx="144.5" cy="114.5" r=".5"/><circle cx="150.5" cy="114.5" r=".5"/><circle cx="156.5" cy="114.5" r=".5"/><circle cx="162.5" cy="114.5" r=".5"/><circle cx="168.5" cy="114.5" r=".5"/><circle cx="174.5" cy="114.5" r=".5"/><circle cx="180.5" cy="114.5" r=".5"/><circle cx="186.5" cy="114.5" r=".5"/><circle cx="192.5" cy="114.5" r=".5"/><circle cx="198.5" cy="114.5" r=".5"/><circle cx=".5" cy="120.5" r=".5"/><circle cx="6.5" cy="120.5" r=".5"/><circle cx="12.5" cy="120.5" r=".5"/><circle cx="18.5" cy="120.5" r=".5"/><circle cx="24.5" cy="120.5" r=".5"/><circle cx="30.5" cy="120.5" r=".5"/><circle cx="36.5" cy="120.5" r=".5"/><circle cx="42.5" cy="120.5" r=".5"/><circle cx="48.5" cy="120.5" r=".5"/><circle cx="54.5" cy="120.5" r=".5"/><circle cx="60.5" cy="120.5" r=".5"/><circle cx="66.5" cy="120.5" r=".5"/><circle cx="72.5" cy="120.5" r=".5"/><circle cx="78.5" cy="120.5" r=".5"/><circle cx="84.5" cy="120.5" r=".5"/><circle cx="90.5" cy="120.5" r=".5"/><circle cx="96.5" cy="120.5" r=".5"/><circle cx="102.5" cy="120.5" r=".5"/><circle cx="108.5" cy="120.5" r=".5"/><circle cx="114.5" cy="120.5" r=".5"/><circle cx="120.5" cy="120.5" r=".5"/><circle cx="126.5" cy="120.5" r=".5"/><circle cx="132.5" cy="120.5" r=".5"/><circle cx="138.5" cy="120.5" r=".5"/><circle cx="144.5" cy="120.5" r=".5"/><circle cx="150.5" cy="120.5" r=".5"/><circle cx="156.5" cy="120.5" r=".5"/><circle cx="162.5" cy="120.5" r=".5"/><circle cx="168.5" cy="120.5" r=".5"/><circle cx="174.5" cy="120.5" r=".5"/><circle cx="180.5" cy="120.5" r=".5"/><circle cx="186.5" cy="120.5" r=".5"/><circle cx="192.5" cy="120.5" r=".5"/><circle cx="198.5" cy="120.5" r=".5"/><circle cx=".5" cy="126.5" r=".5"/><circle cx="6.5" cy="126.5" r=".5"/><circle cx="12.5" cy="126.5" r=".5"/><circle cx="18.5" cy="126.5" r=".5"/><circle cx="24.5" cy="126.5" r=".5"/><circle cx="30.5" cy="126.5" r=".5"/><circle cx="36.5" cy="126.5" r=".5"/><circle cx="42.5" cy="126.5" r=".5"/><circle cx="48.5" cy="126.5" r=".5"/><circle cx="54.5" cy="126.5" r=".5"/><circle cx="60.5" cy="126.5" r=".5"/><circle cx="66.5" cy="126.5" r=".5"/><circle cx="72.5" cy="126.5" r=".5"/><circle cx="78.5" cy="126.5" r=".5"/><circle cx="84.5" cy="126.5" r=".5"/><circle cx="90.5" cy="126.5" r=".5"/><circle cx="96.5" cy="126.5" r=".5"/><circle cx="102.5" cy="126.5" r=".5"/><circle cx="108.5" cy="126.5" r=".5"/><circle cx="114.5" cy="126.5" r=".5"/><circle cx="120.5" cy="126.5" r=".5"/><circle cx="126.5" cy="126.5" r=".5"/><circle cx="132.5" cy="126.5" r=".5"/><circle cx="138.5" cy="126.5" r=".5"/><circle cx="144.5" cy="126.5" r=".5"/><circle cx="150.5" cy="126.5" r=".5"/><circle cx="156.5" cy="126.5" r=".5"/><circle cx="162.5" cy="126.5" r=".5"/><circle cx="168.5" cy="126.5" r=".5"/><circle cx="174.5" cy="126.5" r=".5"/><circle cx="180.5" cy="126.5" r=".5"/><circle cx="186.5" cy="126.5" r=".5"/><circle cx="192.5" cy="126.5" r=".5"/><circle cx="198.5" cy="126.5" r=".5"/><circle cx=".5" cy="132.5" r=".5"/><circle cx="6.5" cy="132.5" r=".5"/><circle cx="12.5" cy="132.5" r=".5"/><circle cx="18.5" cy="132.5" r=".5"/><circle cx="24.5" cy="132.5" r=".5"/><circle cx="30.5" cy="132.5" r=".5"/><circle cx="36.5" cy="132.5" r=".5"/><circle cx="42.5" cy="132.5" r=".5"/><circle cx="48.5" cy="132.5" r=".5"/><circle cx="54.5" cy="132.5" r=".5"/><circle cx="60.5" cy="132.5" r=".5"/><circle cx="66.5" cy="132.5" r=".5"/><circle cx="72.5" cy="132.5" r=".5"/><circle cx="78.5" cy="132.5" r=".5"/><circle cx="84.5" cy="132.5" r=".5"/><circle cx="90.5" cy="132.5" r=".5"/><circle cx="96.5" cy="132.5" r=".5"/><circle cx="102.5" cy="132.5" r=".5"/><circle cx="108.5" cy="132.5" r=".5"/><circle cx="114.5" cy="132.5" r=".5"/><circle cx="120.5" cy="132.5" r=".5"/><circle cx="126.5" cy="132.5" r=".5"/><circle cx="132.5" cy="132.5" r=".5"/><circle cx="138.5" cy="132.5" r=".5"/><circle cx="144.5" cy="132.5" r=".5"/><circle cx="150.5" cy="132.5" r=".5"/><circle cx="156.5" cy="132.5" r=".5"/><circle cx="162.5" cy="132.5" r=".5"/><circle cx="168.5" cy="132.5" r=".5"/><circle cx="174.5" cy="132.5" r=".5"/><circle cx="180.5" cy="132.5" r=".5"/><circle cx="186.5" cy="132.5" r=".5"/><circle cx="192.5" cy="132.5" r=".5"/><circle cx="198.5" cy="132.5" r=".5"/><circle cx=".5" cy="138.5" r=".5"/><circle cx="6.5" cy="138.5" r=".5"/><circle cx="12.5" cy="138.5" r=".5"/><circle cx="18.5" cy="138.5" r=".5"/><circle cx="24.5" cy="138.5" r=".5"/><circle cx="30.5" cy="138.5" r=".5"/><circle cx="36.5" cy="138.5" r=".5"/><circle cx="42.5" cy="138.5" r=".5"/><circle cx="48.5" cy="138.5" r=".5"/><circle cx="54.5" cy="138.5" r=".5"/><circle cx="60.5" cy="138.5" r=".5"/><circle cx="66.5" cy="138.5" r=".5"/><circle cx="72.5" cy="138.5" r=".5"/><circle cx="78.5" cy="138.5" r=".5"/><circle cx="84.5" cy="138.5" r=".5"/><circle cx="90.5" cy="138.5" r=".5"/><circle cx="96.5" cy="138.5" r=".5"/><circle cx="102.5" cy="138.5" r=".5"/><circle cx="108.5" cy="138.5" r=".5"/><circle cx="114.5" cy="138.5" r=".5"/><circle cx="120.5" cy="138.5" r=".5"/><circle cx="126.5" cy="138.5" r=".5"/><circle cx="132.5" cy="138.5" r=".5"/><circle cx="138.5" cy="138.5" r=".5"/><circle cx="144.5" cy="138.5" r=".5"/><circle cx="150.5" cy="138.5" r=".5"/><circle cx="156.5" cy="138.5" r=".5"/><circle cx="162.5" cy="138.5" r=".5"/><circle cx="168.5" cy="138.5" r=".5"/><circle cx="174.5" cy="138.5" r=".5"/><circle cx="180.5" cy="138.5" r=".5"/><circle cx="186.5" cy="138.5" r=".5"/><circle cx="192.5" cy="138.5" r=".5"/><circle cx="198.5" cy="138.5" r=".5"/><circle cx=".5" cy="144.5" r=".5"/><circle cx="6.5" cy="144.5" r=".5"/><circle cx="12.5" cy="144.5" r=".5"/><circle cx="18.5" cy="144.5" r=".5"/><circle cx="24.5" cy="144.5" r=".5"/><circle cx="30.5" cy="144.5" r=".5"/><circle cx="36.5" cy="144.5" r=".5"/><circle cx="42.5" cy="144.5" r=".5"/><circle cx="48.5" cy="144.5" r=".5"/><circle cx="54.5" cy="144.5" r=".5"/><circle cx="60.5" cy="144.5" r=".5"/><circle cx="66.5" cy="144.5" r=".5"/><circle cx="72.5" cy="144.5" r=".5"/><circle cx="78.5" cy="144.5" r=".5"/><circle cx="84.5" cy="144.5" r=".5"/><circle cx="90.5" cy="144.5" r=".5"/><circle cx="96.5" cy="144.5" r=".5"/><circle cx="102.5" cy="144.5" r=".5"/><circle cx="108.5" cy="144.5" r=".5"/><circle cx="114.5" cy="144.5" r=".5"/><circle cx="120.5" cy="144.5" r=".5"/><circle cx="126.5" cy="144.5" r=".5"/><circle cx="132.5" cy="144.5" r=".5"/><circle cx="138.5" cy="144.5" r=".5"/><circle cx="144.5" cy="144.5" r=".5"/><circle cx="150.5" cy="144.5" r=".5"/><circle cx="156.5" cy="144.5" r=".5"/><circle cx="162.5" cy="144.5" r=".5"/><circle cx="168.5" cy="144.5" r=".5"/><circle cx="174.5" cy="144.5" r=".5"/><circle cx="180.5" cy="144.5" r=".5"/><circle cx="186.5" cy="144.5" r=".5"/><circle cx="192.5" cy="144.5" r=".5"/><circle cx="198.5" cy="144.5" r=".5"/><circle cx=".5" cy="150.5" r=".5"/><circle cx="6.5" cy="150.5" r=".5"/><circle cx="12.5" cy="150.5" r=".5"/><circle cx="18.5" cy="150.5" r=".5"/><circle cx="24.5" cy="150.5" r=".5"/><circle cx="30.5" cy="150.5" r=".5"/><circle cx="36.5" cy="150.5" r=".5"/><circle cx="42.5" cy="150.5" r=".5"/><circle cx="48.5" cy="150.5" r=".5"/><circle cx="54.5" cy="150.5" r=".5"/><circle cx="60.5" cy="150.5" r=".5"/><circle cx="66.5" cy="150.5" r=".5"/><circle cx="72.5" cy="150.5" r=".5"/><circle cx="78.5" cy="150.5" r=".5"/><circle cx="84.5" cy="150.5" r=".5"/><circle cx="90.5" cy="150.5" r=".5"/><circle cx="96.5" cy="150.5" r=".5"/><circle cx="102.5" cy="150.5" r=".5"/><circle cx="108.5" cy="150.5" r=".5"/><circle cx="114.5" cy="150.5" r=".5"/><circle cx="120.5" cy="150.5" r=".5"/><circle cx="126.5" cy="150.5" r=".5"/><circle cx="132.5" cy="150.5" r=".5"/><circle cx="138.5" cy="150.5" r=".5"/><circle cx="144.5" cy="150.5" r=".5"/><circle cx="150.5" cy="150.5" r=".5"/><circle cx="156.5" cy="150.5" r=".5"/><circle cx="162.5" cy="150.5" r=".5"/><circle cx="168.5" cy="150.5" r=".5"/><circle cx="174.5" cy="150.5" r=".5"/><circle cx="180.5" cy="150.5" r=".5"/><circle cx="186.5" cy="150.5" r=".5"/><circle cx="192.5" cy="150.5" r=".5"/><circle cx="198.5" cy="150.5" r=".5"/><circle cx=".5" cy="156.5" r=".5"/><circle cx="6.5" cy="156.5" r=".5"/><circle cx="12.5" cy="156.5" r=".5"/><circle cx="18.5" cy="156.5" r=".5"/><circle cx="24.5" cy="156.5" r=".5"/><circle cx="30.5" cy="156.5" r=".5"/><circle cx="36.5" cy="156.5" r=".5"/><circle cx="42.5" cy="156.5" r=".5"/><circle cx="48.5" cy="156.5" r=".5"/><circle cx="54.5" cy="156.5" r=".5"/><circle cx="60.5" cy="156.5" r=".5"/><circle cx="66.5" cy="156.5" r=".5"/><circle cx="72.5" cy="156.5" r=".5"/><circle cx="78.5" cy="156.5" r=".5"/><circle cx="84.5" cy="156.5" r=".5"/><circle cx="90.5" cy="156.5" r=".5"/><circle cx="96.5" cy="156.5" r=".5"/><circle cx="102.5" cy="156.5" r=".5"/><circle cx="108.5" cy="156.5" r=".5"/><circle cx="114.5" cy="156.5" r=".5"/><circle cx="120.5" cy="156.5" r=".5"/><circle cx="126.5" cy="156.5" r=".5"/><circle cx="132.5" cy="156.5" r=".5"/><circle cx="138.5" cy="156.5" r=".5"/><circle cx="144.5" cy="156.5" r=".5"/><circle cx="150.5" cy="156.5" r=".5"/><circle cx="156.5" cy="156.5" r=".5"/><circle cx="162.5" cy="156.5" r=".5"/><circle cx="168.5" cy="156.5" r=".5"/><circle cx="174.5" cy="156.5" r=".5"/><circle cx="180.5" cy="156.5" r=".5"/><circle cx="186.5" cy="156.5" r=".5"/><circle cx="192.5" cy="156.5" r=".5"/><circle cx="198.5" cy="156.5" r=".5"/><circle cx=".5" cy="162.5" r=".5"/><circle cx="6.5" cy="162.5" r=".5"/><circle cx="12.5" cy="162.5" r=".5"/><circle cx="18.5" cy="162.5" r=".5"/><circle cx="24.5" cy="162.5" r=".5"/><circle cx="30.5" cy="162.5" r=".5"/><circle cx="36.5" cy="162.5" r=".5"/><circle cx="42.5" cy="162.5" r=".5"/><circle cx="48.5" cy="162.5" r=".5"/><circle cx="54.5" cy="162.5" r=".5"/><circle cx="60.5" cy="162.5" r=".5"/><circle cx="66.5" cy="162.5" r=".5"/><circle cx="72.5" cy="162.5" r=".5"/><circle cx="78.5" cy="162.5" r=".5"/><circle cx="84.5" cy="162.5" r=".5"/><circle cx="90.5" cy="162.5" r=".5"/><circle cx="96.5" cy="162.5" r=".5"/><circle cx="102.5" cy="162.5" r=".5"/><circle cx="108.5" cy="162.5" r=".5"/><circle cx="114.5" cy="162.5" r=".5"/><circle cx="120.5" cy="162.5" r=".5"/><circle cx="126.5" cy="162.5" r=".5"/><circle cx="132.5" cy="162.5" r=".5"/><circle cx="138.5" cy="162.5" r=".5"/><circle cx="144.5" cy="162.5" r=".5"/><circle cx="150.5" cy="162.5" r=".5"/><circle cx="156.5" cy="162.5" r=".5"/><circle cx="162.5" cy="162.5" r=".5"/><circle cx="168.5" cy="162.5" r=".5"/><circle cx="174.5" cy="162.5" r=".5"/><circle cx="180.5" cy="162.5" r=".5"/><circle cx="186.5" cy="162.5" r=".5"/><circle cx="192.5" cy="162.5" r=".5"/><circle cx="198.5" cy="162.5" r=".5"/><circle cx=".5" cy="168.5" r=".5"/><circle cx="6.5" cy="168.5" r=".5"/><circle cx="12.5" cy="168.5" r=".5"/><circle cx="18.5" cy="168.5" r=".5"/><circle cx="24.5" cy="168.5" r=".5"/><circle cx="30.5" cy="168.5" r=".5"/><circle cx="36.5" cy="168.5" r=".5"/><circle cx="42.5" cy="168.5" r=".5"/><circle cx="48.5" cy="168.5" r=".5"/><circle cx="54.5" cy="168.5" r=".5"/><circle cx="60.5" cy="168.5" r=".5"/><circle cx="66.5" cy="168.5" r=".5"/><circle cx="72.5" cy="168.5" r=".5"/><circle cx="78.5" cy="168.5" r=".5"/><circle cx="84.5" cy="168.5" r=".5"/><circle cx="90.5" cy="168.5" r=".5"/><circle cx="96.5" cy="168.5" r=".5"/><circle cx="102.5" cy="168.5" r=".5"/><circle cx="108.5" cy="168.5" r=".5"/><circle cx="114.5" cy="168.5" r=".5"/><circle cx="120.5" cy="168.5" r=".5"/><circle cx="126.5" cy="168.5" r=".5"/><circle cx="132.5" cy="168.5" r=".5"/><circle cx="138.5" cy="168.5" r=".5"/><circle cx="144.5" cy="168.5" r=".5"/><circle cx="150.5" cy="168.5" r=".5"/><circle cx="156.5" cy="168.5" r=".5"/><circle cx="162.5" cy="168.5" r=".5"/><circle cx="168.5" cy="168.5" r=".5"/><circle cx="174.5" cy="168.5" r=".5"/><circle cx="180.5" cy="168.5" r=".5"/><circle cx="186.5" cy="168.5" r=".5"/><circle cx="192.5" cy="168.5" r=".5"/><circle cx="198.5" cy="168.5" r=".5"/><circle cx=".5" cy="174.5" r=".5"/><circle cx="6.5" cy="174.5" r=".5"/><circle cx="12.5" cy="174.5" r=".5"/><circle cx="18.5" cy="174.5" r=".5"/><circle cx="24.5" cy="174.5" r=".5"/><circle cx="30.5" cy="174.5" r=".5"/><circle cx="36.5" cy="174.5" r=".5"/><circle cx="42.5" cy="174.5" r=".5"/><circle cx="48.5" cy="174.5" r=".5"/><circle cx="54.5" cy="174.5" r=".5"/><circle cx="60.5" cy="174.5" r=".5"/><circle cx="66.5" cy="174.5" r=".5"/><circle cx="72.5" cy="174.5" r=".5"/><circle cx="78.5" cy="174.5" r=".5"/><circle cx="84.5" cy="174.5" r=".5"/><circle cx="90.5" cy="174.5" r=".5"/><circle cx="96.5" cy="174.5" r=".5"/><circle cx="102.5" cy="174.5" r=".5"/><circle cx="108.5" cy="174.5" r=".5"/><circle cx="114.5" cy="174.5" r=".5"/><circle cx="120.5" cy="174.5" r=".5"/><circle cx="126.5" cy="174.5" r=".5"/><circle cx="132.5" cy="174.5" r=".5"/><circle cx="138.5" cy="174.5" r=".5"/><circle cx="144.5" cy="174.5" r=".5"/><circle cx="150.5" cy="174.5" r=".5"/><circle cx="156.5" cy="174.5" r=".5"/><circle cx="162.5" cy="174.5" r=".5"/><circle cx="168.5" cy="174.5" r=".5"/><circle cx="174.5" cy="174.5" r=".5"/><circle cx="180.5" cy="174.5" r=".5"/><circle cx="186.5" cy="174.5" r=".5"/><circle cx="192.5" cy="174.5" r=".5"/><circle cx="198.5" cy="174.5" r=".5"/><circle cx=".5" cy="180.5" r=".5"/><circle cx="6.5" cy="180.5" r=".5"/><circle cx="12.5" cy="180.5" r=".5"/><circle cx="18.5" cy="180.5" r=".5"/><circle cx="24.5" cy="180.5" r=".5"/><circle cx="30.5" cy="180.5" r=".5"/><circle cx="36.5" cy="180.5" r=".5"/><circle cx="42.5" cy="180.5" r=".5"/><circle cx="48.5" cy="180.5" r=".5"/><circle cx="54.5" cy="180.5" r=".5"/><circle cx="60.5" cy="180.5" r=".5"/><circle cx="66.5" cy="180.5" r=".5"/><circle cx="72.5" cy="180.5" r=".5"/><circle cx="78.5" cy="180.5" r=".5"/><circle cx="84.5" cy="180.5" r=".5"/><circle cx="90.5" cy="180.5" r=".5"/><circle cx="96.5" cy="180.5" r=".5"/><circle cx="102.5" cy="180.5" r=".5"/><circle cx="108.5" cy="180.5" r=".5"/><circle cx="114.5" cy="180.5" r=".5"/><circle cx="120.5" cy="180.5" r=".5"/><circle cx="126.5" cy="180.5" r=".5"/><circle cx="132.5" cy="180.5" r=".5"/><circle cx="138.5" cy="180.5" r=".5"/><circle cx="144.5" cy="180.5" r=".5"/><circle cx="150.5" cy="180.5" r=".5"/><circle cx="156.5" cy="180.5" r=".5"/><circle cx="162.5" cy="180.5" r=".5"/><circle cx="168.5" cy="180.5" r=".5"/><circle cx="174.5" cy="180.5" r=".5"/><circle cx="180.5" cy="180.5" r=".5"/><circle cx="186.5" cy="180.5" r=".5"/><circle cx="192.5" cy="180.5" r=".5"/><circle cx="198.5" cy="180.5" r=".5"/><circle cx=".5" cy="186.5" r=".5"/><circle cx="6.5" cy="186.5" r=".5"/><circle cx="12.5" cy="186.5" r=".5"/><circle cx="18.5" cy="186.5" r=".5"/><circle cx="24.5" cy="186.5" r=".5"/><circle cx="30.5" cy="186.5" r=".5"/><circle cx="36.5" cy="186.5" r=".5"/><circle cx="42.5" cy="186.5" r=".5"/><circle cx="48.5" cy="186.5" r=".5"/><circle cx="54.5" cy="186.5" r=".5"/><circle cx="60.5" cy="186.5" r=".5"/><circle cx="66.5" cy="186.5" r=".5"/><circle cx="72.5" cy="186.5" r=".5"/><circle cx="78.5" cy="186.5" r=".5"/><circle cx="84.5" cy="186.5" r=".5"/><circle cx="90.5" cy="186.5" r=".5"/><circle cx="96.5" cy="186.5" r=".5"/><circle cx="102.5" cy="186.5" r=".5"/><circle cx="108.5" cy="186.5" r=".5"/><circle cx="114.5" cy="186.5" r=".5"/><circle cx="120.5" cy="186.5" r=".5"/><circle cx="126.5" cy="186.5" r=".5"/><circle cx="132.5" cy="186.5" r=".5"/><circle cx="138.5" cy="186.5" r=".5"/><circle cx="144.5" cy="186.5" r=".5"/><circle cx="150.5" cy="186.5" r=".5"/><circle cx="156.5" cy="186.5" r=".5"/><circle cx="162.5" cy="186.5" r=".5"/><circle cx="168.5" cy="186.5" r=".5"/><circle cx="174.5" cy="186.5" r=".5"/><circle cx="180.5" cy="186.5" r=".5"/><circle cx="186.5" cy="186.5" r=".5"/><circle cx="192.5" cy="186.5" r=".5"/><circle cx="198.5" cy="186.5" r=".5"/><circle cx=".5" cy="192.5" r=".5"/><circle cx="6.5" cy="192.5" r=".5"/><circle cx="12.5" cy="192.5" r=".5"/><circle cx="18.5" cy="192.5" r=".5"/><circle cx="24.5" cy="192.5" r=".5"/><circle cx="30.5" cy="192.5" r=".5"/><circle cx="36.5" cy="192.5" r=".5"/><circle cx="42.5" cy="192.5" r=".5"/><circle cx="48.5" cy="192.5" r=".5"/><circle cx="54.5" cy="192.5" r=".5"/><circle cx="60.5" cy="192.5" r=".5"/><circle cx="66.5" cy="192.5" r=".5"/><circle cx="72.5" cy="192.5" r=".5"/><circle cx="78.5" cy="192.5" r=".5"/><circle cx="84.5" cy="192.5" r=".5"/><circle cx="90.5" cy="192.5" r=".5"/><circle cx="96.5" cy="192.5" r=".5"/><circle cx="102.5" cy="192.5" r=".5"/><circle cx="108.5" cy="192.5" r=".5"/><circle cx="114.5" cy="192.5" r=".5"/><circle cx="120.5" cy="192.5" r=".5"/><circle cx="126.5" cy="192.5" r=".5"/><circle cx="132.5" cy="192.5" r=".5"/><circle cx="138.5" cy="192.5" r=".5"/><circle cx="144.5" cy="192.5" r=".5"/><circle cx="150.5" cy="192.5" r=".5"/><circle cx="156.5" cy="192.5" r=".5"/><circle cx="162.5" cy="192.5" r=".5"/><circle cx="168.5" cy="192.5" r=".5"/><circle cx="174.5" cy="192.5" r=".5"/><circle cx="180.5" cy="192.5" r=".5"/><circle cx="186.5" cy="192.5" r=".5"/><circle cx="192.5" cy="192.5" r=".5"/><circle cx="198.5" cy="192.5" r=".5"/><circle cx=".5" cy="198.5" r=".5"/><circle cx="6.5" cy="198.5" r=".5"/><circle cx="12.5" cy="198.5" r=".5"/><circle cx="18.5" cy="198.5" r=".5"/><circle cx="24.5" cy="198.5" r=".5"/><circle cx="30.5" cy="198.5" r=".5"/><circle cx="36.5" cy="198.5" r=".5"/><circle cx="42.5" cy="198.5" r=".5"/><circle cx="48.5" cy="198.5" r=".5"/><circle cx="54.5" cy="198.5" r=".5"/><circle cx="60.5" cy="198.5" r=".5"/><circle cx="66.5" cy="198.5" r=".5"/><circle cx="72.5" cy="198.5" r=".5"/><circle cx="78.5" cy="198.5" r=".5"/><circle cx="84.5" cy="198.5" r=".5"/><circle cx="90.5" cy="198.5" r=".5"/><circle cx="96.5" cy="198.5" r=".5"/><circle cx="102.5" cy="198.5" r=".5"/><circle cx="108.5" cy="198.5" r=".5"/><circle cx="114.5" cy="198.5" r=".5"/><circle cx="120.5" cy="198.5" r=".5"/><circle cx="126.5" cy="198.5" r=".5"/><circle cx="132.5" cy="198.5" r=".5"/><circle cx="138.5" cy="198.5" r=".5"/><circle cx="144.5" cy="198.5" r=".5"/><circle cx="150.5" cy="198.5" r=".5"/><circle cx="156.5" cy="198.5" r=".5"/><circle cx="162.5" cy="198.5" r=".5"/><circle cx="168.5" cy="198.5" r=".5"/><circle cx="174.5" cy="198.5" r=".5"/><circle cx="180.5" cy="198.5" r=".5"/><circle cx="186.5" cy="198.5" r=".5"/><circle cx="192.5" cy="198.5" r=".5"/><circle cx="198.5" cy="198.5" r=".5"/></g><defs><clipPath id="a"><path fill="#fff" d="M0 0h200v200H0z"/></clipPath></defs></svg>